# xmcd CD database file
#
# Track frame offsets:
#	150
#	16535
#	31352
#	44270
#	60661
#	77783
#	90772
#	103465
#	116506
#	130324
#	149044
#	163095
#	177441
#	190565
#	200789
#	214297
#	230118
#	247554
#	261309
#	274970
#
# Disc length: 3940 seconds
#
# Revision: 0
# Processed by: cddbd v1.4PL0 Copyright (c) Steve Scherf et al.
# Submitted via: CDex 1.50beta10
#
DISCID=220f6214
DTITLE=As 20 mais Sertenejas - Século XX
DYEAR=2002
DGENRE=Country
TTITLE0=Bruno e Marrone - Seu amor ainda é tudo
TTITLE1=Joaquim e Manuel - Boate azul
TTITLE2=Duduca e Dalvan - Dama de vermelho
TTITLE3=Pery e Poty - Sublime renúncia
TTITLE4=Bruno e Marrone - Dizem que um homem não deve chorar
TTITLE5=Chitãozinho e Xororó - Fio de cabelo
TTITLE6=Gilberto e Gilmar - Música da saudade
TTITLE7=Matogrosso e Mathias - 24 horas de amor
TTITLE8=João Mineiro e Marciano - Meu desespero
TTITLE9=Milionário e José Rico - Levando a vida
TTITLE10=Chrytian e Ralf - Noite de tortura
TTITLE11=Matogrosso e Mathias - De igual prá igual
TTITLE12=Gilberto e Gilmar - Só mais uma vez
TTITLE13=Chitãozinho e Xororó - 60 dias apaixonado
TTITLE14=Milionário e José Rico - Vá pro inferno com seu amor
TTITLE15=Ataíde e Açexandre - Não consigo te trair
TTITLE16=Chico Rey e Paraná - Quem será seu outro amor
TTITLE17=Tião Carreiro e Pardinho - Amargurado
TTITLE18=Ataíde e Alexandre - Convite de casamento
TTITLE19=Lourenço e Lourival - Menina da aldeia
EXTD=YEAR: 2002
EXTT0=
EXTT1=
EXTT2=
EXTT3=
EXTT4=
EXTT5=
EXTT6=
EXTT7=
EXTT8=
EXTT9=
EXTT10=
EXTT11=
EXTT12=
EXTT13=
EXTT14=
EXTT15=
EXTT16=
EXTT17=
EXTT18=
EXTT19=
PLAYORDER=
